<?xml version="1.0" encoding="utf-8"?>
<!-- Generator: Adobe Illustrator 20.0.0, SVG Export Plug-In . SVG Version: 6.00 Build 0)  -->
<!DOCTYPE svg PUBLIC "-//W3C//DTD SVG 1.1//EN" "http://www.w3.org/Graphics/SVG/1.1/DTD/svg11.dtd">
<svg version="1.1" id="Layer_1" xmlns="http://www.w3.org/2000/svg" xmlns:xlink="http://www.w3.org/1999/xlink" x="0px" y="0px"
	 viewBox="0 0 35.5 64.3" enable-background="new 0 0 35.5 64.3" xml:space="preserve">
<g>
	<rect x="-250.9" y="-71" fill="none" width="100" height="100"/>
	<g>
		<!-- <path fill="#392F2C" d="M-196.2-42c0-0.4-0.3-0.8-0.8-0.8s-0.8,0.3-0.8,0.8s0.3,0.8,0.8,0.8S-196.2-41.6-196.2-42z M-198.2-40
			c0-0.4-0.3-0.8-0.8-0.8s-0.8,0.3-0.8,0.8c0,0.1,0,0.1,0,0.1c0.5,0,0.9,0.1,1.4,0.2C-198.2-39.8-198.2-39.9-198.2-40z M-200.2-42
			c0-0.4-0.3-0.8-0.8-0.8s-0.8,0.3-0.8,0.8s0.3,0.8,0.8,0.8S-200.2-41.6-200.2-42z M-194.9-40.7c-0.4,0-0.8,0.3-0.8,0.8
			s0.3,0.8,0.8,0.8s0.8-0.3,0.8-0.8S-194.5-40.7-194.9-40.7z M-194.9-0.7c-0.4,0-0.8,0.3-0.8,0.8s0.3,0.8,0.8,0.8s0.8-0.3,0.8-0.8
			S-194.5-0.7-194.9-0.7z M-207.3-17.1c-0.6,0.6-0.6,1.5,0,2.1c0.3,0.3,0.7,0.4,1.1,0.4s0.8-0.1,1.1-0.4l4.1-4.1
			c0.9-0.1,1.6-0.7,1.8-1.5h2.2c0.2,0.3,0.5,0.5,0.8,0.5c0.6,0,1-0.4,1-1c0-0.6-0.4-1-1-1c-0.4,0-0.7,0.2-0.8,0.5h-2.2
			c-0.1-0.3-0.2-0.6-0.4-0.8v-7.7c0-0.8-0.7-1.5-1.5-1.5s-1.5,0.7-1.5,1.5v7.7c-0.2,0.2-0.3,0.5-0.4,0.8h-9.1
			c-0.3,0-0.5,0.2-0.5,0.5c0,0.3,0.2,0.5,0.5,0.5h8.4L-207.3-17.1z M-201.2-22.1c0.6,0,1,0.4,1,1c0,0.6-0.4,1-1,1s-1-0.4-1-1
			C-202.2-21.6-201.7-22.1-201.2-22.1z M-202.2-40c0-0.4-0.3-0.8-0.8-0.8s-0.8,0.3-0.8,0.8c0,0.1,0,0.2,0,0.2
			c0.5-0.1,0.9-0.1,1.4-0.1C-202.2-39.9-202.2-40-202.2-40z M-204.2-42c0-0.4-0.3-0.8-0.8-0.8s-0.8,0.3-0.8,0.8s0.3,0.8,0.8,0.8
			S-204.2-41.6-204.2-42z M-206.2-40c0-0.4-0.3-0.8-0.8-0.8s-0.8,0.3-0.8,0.8s0.3,0.8,0.8,0.8S-206.2-39.6-206.2-40z M-193.2-2.7
			c-0.3,0.1-0.4,0.4-0.4,0.7s0.2,0.6,0.4,0.7v2.4h-15.9v-2.4c0.1,0,0.1,0,0.2,0c0.4,0,0.8-0.3,0.8-0.8s-0.3-0.8-0.8-0.8
			c-0.1,0-0.1,0-0.2,0l0-4.5c-0.7-0.3-1.4-0.7-2-1.1l0,10.3c0,0.6,0.4,1,1,1h17.9c0.6,0,1-0.4,1-1V-8.7c-0.6,0.4-1.3,0.8-2,1.1V-2.7
			z M-192.2-45.1h-17.9c-0.6,0-1,0.4-1,1v10.5c0.6-0.4,1.3-0.8,2-1.1v-6.6c0.1,0,0.1,0,0.2,0c0.4,0,0.8-0.3,0.8-0.8
			s-0.3-0.8-0.8-0.8c-0.1,0-0.1,0-0.2,0v-0.4h15.9v0.4c-0.3,0.1-0.4,0.4-0.4,0.7s0.2,0.6,0.4,0.7v5.4c0.7,0.3,1.4,0.7,2,1.1v-9.2
			C-191.2-44.6-191.7-45.1-192.2-45.1z M-186.5-11.1c-0.6,0.8-1.2,1.6-1.9,2.3l0.3,0.3c0.3,0.2,0.6,0.4,1,0.4c0.4,0,0.9-0.2,1.1-0.5
			c0.5-0.6,0.4-1.6-0.2-2.1L-186.5-11.1z M-184.3-31.1c-0.4-0.7-1.3-1-2-0.5l-0.4,0.3c0.6,0.8,1.1,1.7,1.5,2.6l0.4-0.2
			C-184.2-29.5-183.9-30.4-184.3-31.1z M-196.8-2.7c-0.2,0-0.4,0.1-0.6,0.1c-0.2,0.1-0.3,0.3-0.3,0.6c0,0.4,0.3,0.8,0.8,0.8
			s0.8-0.3,0.8-0.8C-196.2-2.4-196.4-2.7-196.8-2.7z M-206.9-0.7c-0.4,0-0.8,0.3-0.8,0.8s0.3,0.8,0.8,0.8s0.8-0.3,0.8-0.8
			S-206.5-0.7-206.9-0.7z M-201.6-2.2c0,0.1,0,0.1,0,0.2c0,0.4,0.3,0.8,0.8,0.8s0.8-0.3,0.8-0.8c0-0.1,0-0.2,0-0.2c-0.3,0-0.7,0-1,0
			C-201.3-2.2-201.5-2.2-201.6-2.2z M-205.7-2c0,0.4,0.3,0.8,0.8,0.8s0.8-0.3,0.8-0.8c0-0.2-0.1-0.3-0.2-0.5
			c-0.3-0.1-0.6-0.1-0.9-0.2C-205.5-2.5-205.7-2.3-205.7-2z M-199.7,0c0,0.4,0.3,0.8,0.8,0.8s0.8-0.3,0.8-0.8s-0.3-0.8-0.8-0.8
			S-199.7-0.4-199.7,0z M-203.7,0c0,0.4,0.3,0.8,0.8,0.8s0.8-0.3,0.8-0.8s-0.3-0.8-0.8-0.8S-203.7-0.4-203.7,0z"/> -->
		<g>
	<!--		<path fill="#00B487" d="M-201.2-3.3c-9.8,0-17.8-8-17.8-17.8c0-9.8,8-17.7,17.8-17.7s17.8,8,17.8,17.7
				C-183.4-11.3-191.4-3.3-201.2-3.3z M-201.2-33.3c-6.8,0-12.2,5.5-12.2,12.2c0,6.8,5.5,12.2,12.2,12.2s12.2-5.5,12.2-12.2
				C-188.9-27.8-194.4-33.3-201.2-33.3z"/> -->
		</g>
	</g>
</g>
<g>
	<g>
		<g>
			<!-- <path fill="#00B487" d="M-97.1,11.7c0.1,0.4,0.2,0.8,0.2,1.3c0,1.9-1.3,3.5-3.1,3.9c6.3,0.5,11.3,5.8,11.3,12.2
				c0,3.6-1.5,6.8-4,9h5.7l-2.5,4.5c3.8-3.3,6.3-8.1,6.3-13.5C-83.2,20.5-89.2,13.4-97.1,11.7z M-101.8,16.8c-1.8-0.4-3.1-2-3.1-3.9
				c0-0.4,0.1-0.9,0.2-1.3c-8,1.7-14,8.8-14,17.3c0,5.4,2.4,10.3,6.3,13.5l-2.5-4.5h5.7c-2.4-2.2-4-5.4-4-9
				C-113.2,22.6-108.2,17.3-101.8,16.8z"/> -->
			<path fill="#392F2C" d="M-93.9,28.8c0.4,0,0.8-0.3,0.8-0.8s-0.3-0.8-0.8-0.8s-0.8,0.3-0.8,0.8S-94.3,28.8-93.9,28.8z M-97.9,32.8
				c0.4,0,0.8-0.3,0.8-0.8c0-0.2-0.1-0.3-0.2-0.5c-0.4,0.3-0.8,0.5-1.3,0.7C-98.5,32.5-98.3,32.8-97.9,32.8z M-93.9,32.8
				c0.4,0,0.8-0.3,0.8-0.8s-0.3-0.8-0.8-0.8s-0.8,0.3-0.8,0.8S-94.3,32.8-93.9,32.8z M-95.2,26c0-0.4-0.3-0.6-0.6-0.7
				c-0.1,0.5-0.2,0.9-0.3,1.4c0,0,0.1,0,0.1,0C-95.5,26.8-95.2,26.4-95.2,26z M-95.9,34.8c0.4,0,0.8-0.3,0.8-0.8s-0.3-0.8-0.8-0.8
				s-0.8,0.3-0.8,0.8S-96.3,34.8-95.9,34.8z M-95.2,30c0-0.4-0.3-0.8-0.8-0.8c-0.1,0-0.1,0-0.1,0c0,0.5-0.1,0.9-0.4,1.3
				c0.1,0.1,0.3,0.2,0.5,0.2C-95.5,30.8-95.2,30.4-95.2,30z M-93.9,24.8c0.4,0,0.8-0.3,0.8-0.8s-0.3-0.8-0.8-0.8s-0.8,0.3-0.8,0.8
				S-94.3,24.8-93.9,24.8z M-89.9,28.8c0.4,0,0.8-0.3,0.8-0.8s-0.3-0.8-0.8-0.8s-0.8,0.3-0.8,0.8S-90.3,28.8-89.9,28.8z M-89.9,24.8
				c0.2,0,0.3-0.1,0.4-0.1c-0.2-0.5-0.4-0.9-0.6-1.3c-0.3,0.1-0.6,0.4-0.6,0.7C-90.7,24.4-90.3,24.8-89.9,24.8z M-89.9,32.8
				c0.4,0,0.8-0.3,0.8-0.8s-0.3-0.8-0.8-0.8s-0.8,0.3-0.8,0.8S-90.3,32.8-89.9,32.8z M-91.9,34.8c0.4,0,0.8-0.3,0.8-0.8
				s-0.3-0.8-0.8-0.8s-0.8,0.3-0.8,0.8S-92.3,34.8-91.9,34.8z M-91.9,22.8c0.4,0,0.8-0.3,0.8-0.8c0-0.2-0.1-0.3-0.1-0.4
				c-0.4,0-0.9,0-1.3,0.2c0,0.1,0,0.1,0,0.2C-92.7,22.4-92.3,22.8-91.9,22.8z M-91.9,30.8c0.4,0,0.8-0.3,0.8-0.8s-0.3-0.8-0.8-0.8
				s-0.8,0.3-0.8,0.8S-92.3,30.8-91.9,30.8z M-91.9,26.8c0.4,0,0.8-0.3,0.8-0.8s-0.3-0.8-0.8-0.8s-0.8,0.3-0.8,0.8
				S-92.3,26.8-91.9,26.8z M-109.9,32.8c0.4,0,0.8-0.3,0.8-0.8s-0.3-0.8-0.8-0.8s-0.8,0.3-0.8,0.8S-110.3,32.8-109.9,32.8z
				 M-97.2,36c0-0.4-0.3-0.8-0.8-0.8s-0.8,0.3-0.8,0.8s0.3,0.8,0.8,0.8S-97.2,36.4-97.2,36z M-101.2,36c0-0.4-0.3-0.8-0.8-0.8
				s-0.8,0.3-0.8,0.8s0.3,0.8,0.8,0.8S-101.2,36.4-101.2,36z M-105.2,36c0-0.4-0.3-0.8-0.8-0.8s-0.8,0.3-0.8,0.8s0.3,0.8,0.8,0.8
				S-105.2,36.4-105.2,36z M-99.9,34.8c0.4,0,0.8-0.3,0.8-0.8s-0.3-0.8-0.8-0.8s-0.8,0.3-0.8,0.8S-100.3,34.8-99.9,34.8z M-93.2,36
				c0-0.4-0.3-0.8-0.8-0.8s-0.8,0.3-0.8,0.8s0.3,0.8,0.8,0.8S-93.2,36.4-93.2,36z M-85.8,37.4c-0.2-0.4-0.6-0.6-1.1-0.6h-7h-4h-4h-4
				h-4h-5c-0.4,0-0.9,0.2-1.1,0.6c-0.2,0.4-0.2,0.9,0,1.2l14,25c0.2,0.4,0.6,0.6,1.1,0.6s0.9-0.2,1.1-0.6l14-25
				C-85.6,38.2-85.6,37.8-85.8,37.4z M-103.6,39.3h5.3l0,0l-2.7,4.8L-103.6,39.3L-103.6,39.3z M-112.8,39.3h6.9l0,0l-3.4,6.1
				L-112.8,39.3z M-108.2,47.5l3.4-6.1l2.7,4.8l-3.4,6.1L-108.2,47.5z M-100.9,60.4l-3.4-6.1l3.4-6.1l3.4,6.1L-100.9,60.4z
				 M-96.3,52.3l-3.4-6.1l2.7-4.8l3.4,6.1L-96.3,52.3z M-92.5,45.4l-3.4-6.1l0,0h6.9L-92.5,45.4z M-109.2,36c0-0.4-0.3-0.8-0.8-0.8
				s-0.8,0.3-0.8,0.8s0.3,0.8,0.8,0.8S-109.2,36.4-109.2,36z M-105.9,32.8c0.4,0,0.8-0.3,0.8-0.8s-0.3-0.8-0.8-0.8s-0.8,0.3-0.8,0.8
				S-106.3,32.8-105.9,32.8z M-111.2,34c0-0.4-0.3-0.8-0.8-0.8c-0.2,0-0.3,0.1-0.4,0.1c0.2,0.5,0.4,0.9,0.6,1.3
				C-111.4,34.6-111.2,34.4-111.2,34z M-101.9,32.8c0.3,0,0.5-0.2,0.6-0.4c-0.5-0.1-0.9-0.3-1.4-0.5c0,0,0,0.1,0,0.1
				C-102.7,32.4-102.3,32.8-101.9,32.8z M-103.9,34.8c0.4,0,0.8-0.3,0.8-0.8s-0.3-0.8-0.8-0.8s-0.8,0.3-0.8,0.8
				S-104.3,34.8-103.9,34.8z M-107.9,30.8c0.4,0,0.7-0.3,0.7-0.7c-0.5,0-1,0.1-1.4,0.2C-108.5,30.5-108.3,30.8-107.9,30.8z
				 M-107.9,34.8c0.4,0,0.8-0.3,0.8-0.8s-0.3-0.8-0.8-0.8s-0.8,0.3-0.8,0.8S-108.3,34.8-107.9,34.8z"/>
			<!-- <path fill="#392F2C" d="M-97.4,3.1c0.2,0.2,0.5,0.4,0.8,0.4c0.2,0,0.4,0,0.5-0.1c0.5-0.3,0.6-0.9,0.3-1.4l-0.9-1.5
				C-96.9,0-97.6-0.1-98,0.1c-0.5,0.3-0.6,0.9-0.3,1.4l0.1,0.1c-3.3,1.8-4.1,4.5-4.2,6.6c-2,0.7-3.4,2.5-3.4,4.7c0,2.8,2.2,5,5,5
				s5-2.2,5-5c0-2.4-1.7-4.4-4-4.9c-0.1,1,0.1,1.8,0.3,2.2c1,0.5,1.7,1.5,1.7,2.7c0,1.7-1.3,3-3,3s-3-1.3-3-3c0-1.2,0.7-2.2,1.6-2.7
				c0.1,0.7,0.3,1.1,0.3,1.1c0.1,0.3,0.5,0.5,0.8,0.5c0.1,0,0.2,0,0.3-0.1c0.4-0.2,0.7-0.7,0.5-1.1C-100.4,10.5-102.2,5.8-97.4,3.1z
				"/> -->
		</g>
	</g>
</g>
<g>
	<g>
		<g>
			<path fill="#00B487" d="M21.5,11.7c0.1,0.4,0.2,0.8,0.2,1.3c0,1.9-1.3,3.5-3.1,3.9C25,17.3,30,22.6,30,29c0,3.6-1.5,6.8-4,9h5.7
				l-2.5,4.5c3.8-3.3,6.3-8.1,6.3-13.5C35.5,20.5,29.5,13.4,21.5,11.7z M16.8,16.8c-1.8-0.4-3.1-2-3.1-3.9c0-0.4,0.1-0.9,0.2-1.3
				C6,13.4,0,20.5,0,29c0,5.4,2.4,10.3,6.3,13.5L3.8,38h5.7c-2.4-2.2-4-5.4-4-9C5.5,22.6,10.5,17.3,16.8,16.8z"/>
			<path fill="#392F2C" d="M24.8,28.8c0.4,0,0.8-0.3,0.8-0.8s-0.3-0.8-0.8-0.8S24,27.6,24,28S24.3,28.8,24.8,28.8z M20.8,32.8
				c0.4,0,0.8-0.3,0.8-0.8c0-0.2-0.1-0.3-0.2-0.5c-0.4,0.3-0.8,0.5-1.3,0.7C20.1,32.5,20.4,32.8,20.8,32.8z M24.8,32.8
				c0.4,0,0.8-0.3,0.8-0.8s-0.3-0.8-0.8-0.8S24,31.6,24,32S24.3,32.8,24.8,32.8z M23.5,26c0-0.4-0.3-0.6-0.6-0.7
				c-0.1,0.5-0.2,0.9-0.3,1.4c0,0,0.1,0,0.1,0C23.2,26.8,23.5,26.4,23.5,26z M22.8,34.8c0.4,0,0.8-0.3,0.8-0.8s-0.3-0.8-0.8-0.8
				S22,33.6,22,34S22.3,34.8,22.8,34.8z M23.5,30c0-0.4-0.3-0.8-0.8-0.8c-0.1,0-0.1,0-0.1,0c0,0.5-0.1,0.9-0.4,1.3
				c0.1,0.1,0.3,0.2,0.5,0.2C23.2,30.8,23.5,30.4,23.5,30z M24.8,24.8c0.4,0,0.8-0.3,0.8-0.8s-0.3-0.8-0.8-0.8S24,23.6,24,24
				S24.3,24.8,24.8,24.8z M28.8,28.8c0.4,0,0.8-0.3,0.8-0.8s-0.3-0.8-0.8-0.8S28,27.6,28,28S28.3,28.8,28.8,28.8z M28.8,24.8
				c0.2,0,0.3-0.1,0.4-0.1c-0.2-0.5-0.4-0.9-0.6-1.3C28.3,23.4,28,23.6,28,24C28,24.4,28.3,24.8,28.8,24.8z M28.8,32.8
				c0.4,0,0.8-0.3,0.8-0.8s-0.3-0.8-0.8-0.8S28,31.6,28,32S28.3,32.8,28.8,32.8z M26.8,34.8c0.4,0,0.8-0.3,0.8-0.8s-0.3-0.8-0.8-0.8
				S26,33.6,26,34S26.3,34.8,26.8,34.8z M26.8,22.8c0.4,0,0.8-0.3,0.8-0.8c0-0.2-0.1-0.3-0.1-0.4c-0.4,0-0.9,0-1.3,0.2
				c0,0.1,0,0.1,0,0.2C26,22.4,26.3,22.8,26.8,22.8z M26.8,30.8c0.4,0,0.8-0.3,0.8-0.8s-0.3-0.8-0.8-0.8S26,29.6,26,30
				S26.3,30.8,26.8,30.8z M26.8,26.8c0.4,0,0.8-0.3,0.8-0.8s-0.3-0.8-0.8-0.8S26,25.6,26,26S26.3,26.8,26.8,26.8z M8.8,32.8
				c0.4,0,0.8-0.3,0.8-0.8s-0.3-0.8-0.8-0.8S8,31.6,8,32S8.3,32.8,8.8,32.8z M21.5,36c0-0.4-0.3-0.8-0.8-0.8S20,35.6,20,36
				s0.3,0.8,0.8,0.8S21.5,36.4,21.5,36z M17.5,36c0-0.4-0.3-0.8-0.8-0.8S16,35.6,16,36s0.3,0.8,0.8,0.8S17.5,36.4,17.5,36z M13.5,36
				c0-0.4-0.3-0.8-0.8-0.8S12,35.6,12,36s0.3,0.8,0.8,0.8S13.5,36.4,13.5,36z M18.8,34.8c0.4,0,0.8-0.3,0.8-0.8s-0.3-0.8-0.8-0.8
				S18,33.6,18,34S18.3,34.8,18.8,34.8z M25.5,36c0-0.4-0.3-0.8-0.8-0.8S24,35.6,24,36s0.3,0.8,0.8,0.8S25.5,36.4,25.5,36z
				 M32.8,37.4c-0.2-0.4-0.6-0.6-1.1-0.6h-7h-4h-4h-4h-4h-5c-0.4,0-0.9,0.2-1.1,0.6c-0.2,0.4-0.2,0.9,0,1.2l14,25
				c0.2,0.4,0.6,0.6,1.1,0.6s0.9-0.2,1.1-0.6l14-25C33.1,38.2,33.1,37.8,32.8,37.4z M15.1,39.3h5.3l0,0l-2.7,4.8L15.1,39.3
				L15.1,39.3z M5.9,39.3h6.9l0,0l-3.4,6.1L5.9,39.3z M10.5,47.5l3.4-6.1l2.7,4.8l-3.4,6.1L10.5,47.5z M17.8,60.4l-3.4-6.1l3.4-6.1
				l3.4,6.1L17.8,60.4z M22.3,52.3l-3.4-6.1l2.7-4.8l3.4,6.1L22.3,52.3z M26.2,45.4l-3.4-6.1l0,0h6.9L26.2,45.4z M9.5,36
				c0-0.4-0.3-0.8-0.8-0.8S8,35.6,8,36s0.3,0.8,0.8,0.8S9.5,36.4,9.5,36z M12.8,32.8c0.4,0,0.8-0.3,0.8-0.8s-0.3-0.8-0.8-0.8
				S12,31.6,12,32S12.3,32.8,12.8,32.8z M7.5,34c0-0.4-0.3-0.8-0.8-0.8c-0.2,0-0.3,0.1-0.4,0.1c0.2,0.5,0.4,0.9,0.6,1.3
				C7.2,34.6,7.5,34.4,7.5,34z M16.8,32.8c0.3,0,0.5-0.2,0.6-0.4c-0.5-0.1-0.9-0.3-1.4-0.5c0,0,0,0.1,0,0.1
				C16,32.4,16.3,32.8,16.8,32.8z M14.8,34.8c0.4,0,0.8-0.3,0.8-0.8s-0.3-0.8-0.8-0.8S14,33.6,14,34S14.3,34.8,14.8,34.8z
				 M10.8,30.8c0.4,0,0.7-0.3,0.7-0.7c-0.5,0-1,0.1-1.4,0.2C10.1,30.5,10.4,30.8,10.8,30.8z M10.8,34.8c0.4,0,0.8-0.3,0.8-0.8
				s-0.3-0.8-0.8-0.8S10,33.6,10,34S10.3,34.8,10.8,34.8z"/>
			<path fill="#392F2C" d="M21.3,3.1c0.2,0.2,0.5,0.4,0.8,0.4c0.2,0,0.4,0,0.5-0.1c0.5-0.3,0.6-0.9,0.3-1.4L22,0.5
				c-0.3-0.5-0.9-0.6-1.4-0.3c-0.5,0.3-0.6,0.9-0.3,1.4l0.1,0.1c-3.3,1.8-4.1,4.5-4.2,6.6c-2,0.7-3.4,2.5-3.4,4.7c0,2.8,2.2,5,5,5
				s5-2.2,5-5c0-2.4-1.7-4.4-4-4.9c-0.1,1,0.1,1.8,0.3,2.2c1,0.5,1.7,1.5,1.7,2.7c0,1.7-1.3,3-3,3s-3-1.3-3-3c0-1.2,0.7-2.2,1.6-2.7
				c0.1,0.7,0.3,1.1,0.3,1.1c0.1,0.3,0.5,0.5,0.8,0.5c0.1,0,0.2,0,0.3-0.1c0.4-0.2,0.7-0.7,0.5-1.1C18.2,10.5,16.4,5.8,21.3,3.1z"/>
		</g>
	</g>
</g>
<g>
	<rect x="-150.9" y="-121" fill="none" width="100" height="100"/>
	<g>
		<g>
			<g>
				<g>
					<g>
						<g>
							<path fill="#00B487" d="M-100.9-53.2c-9.8,0-17.8-8-17.8-17.8s8-17.8,17.8-17.8s17.8,8,17.8,17.8S-91.1-53.2-100.9-53.2z
								 M-100.9-83.2c-6.8,0-12.2,5.5-12.2,12.2s5.5,12.2,12.2,12.2s12.2-5.5,12.2-12.2S-94.2-83.2-100.9-83.2z"/>
						</g>
					</g>
				</g>
			</g>
		</g>
	</g>
	<path fill="#392F2C" d="M-100.9-65.7c-0.4,0-0.8,0.3-0.8,0.8s0.3,0.8,0.8,0.8s0.8-0.3,0.8-0.8S-100.5-65.7-100.9-65.7z M-98.4-71
		c0-1.4-1.1-2.5-2.5-2.5s-2.5,1.1-2.5,2.5s1.1,2.5,2.5,2.5S-98.4-69.6-98.4-71z M-101.9-71c0-0.5,0.4-1,1-1s1,0.4,1,1s-0.4,1-1,1
		S-101.9-70.5-101.9-71z M-96.9-72.2c0.4,0,0.8-0.3,0.8-0.8s-0.3-0.8-0.8-0.8s-0.8,0.3-0.8,0.8S-97.3-72.2-96.9-72.2z M-96.9-68.2
		c0.4,0,0.8-0.3,0.8-0.8s-0.3-0.8-0.8-0.8s-0.8,0.3-0.8,0.8S-97.3-68.2-96.9-68.2z M-89.2-74.4v18.8c-1.2,0.5-2.1,1.7-2.1,3.1
		c0,1.9,1.5,3.4,3.4,3.4s3.4-1.5,3.4-3.4c0-1.4-0.9-2.6-2.1-3.1V-75c0-0.4-0.2-0.7-0.4-1l-3-2.5c-0.5-0.4-1.3-0.4-1.8,0.2
		c-0.4,0.5-0.4,1.3,0.2,1.8L-89.2-74.4z M-87.9-54.1c0.9,0,1.6,0.7,1.6,1.6s-0.7,1.6-1.6,1.6s-1.6-0.7-1.6-1.6S-88.8-54.1-87.9-54.1
		z M-94.9-70.2c0.4,0,0.8-0.3,0.8-0.8s-0.3-0.8-0.8-0.8s-0.8,0.3-0.8,0.8S-95.3-70.2-94.9-70.2z M-98.9-74.2c0.4,0,0.8-0.3,0.8-0.8
		s-0.3-0.8-0.8-0.8s-0.8,0.3-0.8,0.8S-99.3-74.2-98.9-74.2z M-98.9-67.7c-0.4,0-0.8,0.3-0.8,0.8s0.3,0.8,0.8,0.8s0.8-0.3,0.8-0.8
		S-98.5-67.7-98.9-67.7z M-100.9-62.1c4.9,0,8.9-4,8.9-8.9s-4-8.9-8.9-8.9s-8.9,4-8.9,8.9S-105.8-62.1-100.9-62.1z M-108-71
		c0-1.2,0.3-2.3,0.8-3.3c0.1,0,0.2,0.1,0.3,0.1c0.4,0,0.8-0.3,0.8-0.8c0-0.2-0.1-0.4-0.2-0.5c0.3-0.3,0.6-0.7,0.9-0.9
		c0.1,0.1,0.3,0.2,0.5,0.2c0.4,0,0.8-0.3,0.8-0.8c0-0.1,0-0.2-0.1-0.3c1-0.5,2.1-0.8,3.3-0.8s2.3,0.3,3.3,0.8c0,0.1-0.1,0.2-0.1,0.3
		c0,0.4,0.3,0.8,0.8,0.8c0.2,0,0.4-0.1,0.5-0.2c0.3,0.3,0.7,0.6,0.9,0.9c-0.1,0.1-0.2,0.3-0.2,0.5c0,0.4,0.3,0.8,0.8,0.8
		c0.1,0,0.2,0,0.3-0.1c0.5,1,0.8,2.1,0.8,3.3s-0.3,2.3-0.8,3.3c-0.1,0-0.2-0.1-0.3-0.1c-0.4,0-0.8,0.3-0.8,0.8
		c0,0.2,0.1,0.4,0.2,0.5c-0.3,0.3-0.6,0.7-0.9,0.9c-0.1-0.1-0.3-0.2-0.5-0.2c-0.4,0-0.8,0.3-0.8,0.8c0,0.1,0,0.2,0.1,0.3
		c-1,0.5-2.1,0.8-3.3,0.8s-2.3-0.3-3.3-0.8c0-0.1,0.1-0.2,0.1-0.3c0-0.4-0.3-0.8-0.8-0.8c-0.2,0-0.4,0.1-0.5,0.2
		c-0.3-0.3-0.7-0.6-0.9-0.9c0.1-0.1,0.2-0.3,0.2-0.5c0-0.4-0.3-0.8-0.8-0.8c-0.1,0-0.2,0-0.3,0.1C-107.7-68.7-108-69.8-108-71z
		 M-116.9-84.2c0.4,0,0.8-0.3,0.8-0.8v-3c0-0.4-0.3-0.8-0.8-0.8s-0.8,0.3-0.8,0.8v3C-117.7-84.6-117.3-84.2-116.9-84.2z
		 M-114.4-49.2c1.5,0,2.8-1.1,3.2-2.5h0.3c0.4,0,0.8-0.3,0.8-0.8s-0.3-0.8-0.8-0.8h-0.3c-0.3-1.4-1.6-2.5-3.2-2.5
		c-1.8,0-3.2,1.5-3.2,3.2S-116.2-49.2-114.4-49.2z M-114.4-54.2c0.7,0,1.3,0.4,1.6,1h-0.1c-0.4,0-0.8,0.3-0.8,0.8s0.3,0.8,0.8,0.8
		h0.1c-0.3,0.6-0.9,1-1.6,1c-1,0-1.8-0.8-1.8-1.8S-115.4-54.2-114.4-54.2z M-106.2-71c0-0.4-0.3-0.8-0.8-0.8s-0.8,0.3-0.8,0.8
		s0.3,0.8,0.8,0.8S-106.2-70.6-106.2-71z M-80.9-92.9h-40c-0.5,0-0.9,0.4-0.9,0.9v46c0,0.5,0.4,0.9,0.9,0.9h40
		c0.5,0,0.9-0.4,0.9-0.9v-46C-80-92.5-80.4-92.9-80.9-92.9z M-81.8-46.9H-120v-44.2h38.2V-46.9z M-102.9-74.2c0.4,0,0.8-0.3,0.8-0.8
		s-0.3-0.8-0.8-0.8s-0.8,0.3-0.8,0.8S-103.3-74.2-102.9-74.2z M-104.9-68.2c0.4,0,0.8-0.3,0.8-0.8s-0.3-0.8-0.8-0.8
		s-0.8,0.3-0.8,0.8S-105.3-68.2-104.9-68.2z M-100.9-76.2c0.4,0,0.8-0.3,0.8-0.8s-0.3-0.8-0.8-0.8s-0.8,0.3-0.8,0.8
		S-101.3-76.2-100.9-76.2z M-102.9-66.2c0.4,0,0.8-0.3,0.8-0.8s-0.3-0.8-0.8-0.8s-0.8,0.3-0.8,0.8S-103.3-66.2-102.9-66.2z
		 M-104.9-72.2c0.4,0,0.8-0.3,0.8-0.8s-0.3-0.8-0.8-0.8s-0.8,0.3-0.8,0.8S-105.3-72.2-104.9-72.2z"/>
</g>
</svg>
